<?xml version="1.0" encoding="UTF-8" standalone="no"?>
<!-- Created with Inkscape (http://www.inkscape.org/) -->

<svg
   xmlns:dc="http://purl.org/dc/elements/1.1/"
   xmlns:cc="http://creativecommons.org/ns#"
   xmlns:rdf="http://www.w3.org/1999/02/22-rdf-syntax-ns#"
   xmlns:svg="http://www.w3.org/2000/svg"
   xmlns="http://www.w3.org/2000/svg"
   xmlns:sodipodi="http://sodipodi.sourceforge.net/DTD/sodipodi-0.dtd"
   xmlns:inkscape="http://www.inkscape.org/namespaces/inkscape"
   id="svg2"
   version="1.1"
   inkscape:version="0.92.2 (5c3e80d, 2017-08-06)"
   width="173.5118"
   height="224.35367"
   xml:space="preserve"
   sodipodi:docname="grad_p_caso_1.svg"><sodipodi:namedview
     pagecolor="#ffffff"
     bordercolor="#666666"
     borderopacity="1"
     objecttolerance="10"
     gridtolerance="10"
     guidetolerance="10"
     inkscape:pageopacity="0"
     inkscape:pageshadow="2"
     inkscape:window-width="3840"
     inkscape:window-height="1973"
     id="namedview4"
     showgrid="false"
     inkscape:zoom="1.7505703"
     inkscape:cx="-122.44898"
     inkscape:cy="207.89802"
     inkscape:window-x="-18"
     inkscape:window-y="-18"
     inkscape:window-maximized="1"
     inkscape:current-layer="g10"
     showguides="true"
     inkscape:guide-bbox="true"
     fit-margin-top="4"
     fit-margin-left="4"
     fit-margin-right="4"
     fit-margin-bottom="4" /><metadata
     id="metadata8"><rdf:RDF><cc:Work
         rdf:about=""><dc:format>image/svg+xml</dc:format><dc:type
           rdf:resource="http://purl.org/dc/dcmitype/StillImage" /><dc:title></dc:title></cc:Work></rdf:RDF></metadata><defs
     id="defs6" /><g
     transform="matrix(1.25,0,0,-1.25,-913.61215,703.68136)"
     inkscape:label="enotes_af3_On_ Boundary_Layer_Theory"
     inkscape:groupmode="layer"
     id="g10"><path
       inkscape:connector-curvature="0"
       id="path948-7"
       style="fill:none;stroke:#ff0000;stroke-width:1.86001825;stroke-linecap:butt;stroke-linejoin:miter;stroke-miterlimit:4;stroke-dasharray:none;stroke-opacity:1"
       d="m 837.98936,404.11707 c -83.07516,25.39579 -88.35086,81.07045 -88.35086,120.13415 0,30.6903 0,9.87865 0,9.87865"
       sodipodi:nodetypes="csc" /><path
       style="fill:none;stroke:#000000;stroke-width:0.80000001px;stroke-linecap:butt;stroke-linejoin:miter;stroke-opacity:1"
       d="M 749.78037,553.47057 V 404.20083 h 109.39302"
       id="path4683-0"
       inkscape:connector-curvature="0"
       sodipodi:nodetypes="ccc" /><path
       d="m 746.64308,547.56383 c 0,0 3.07317,8.6487 3.07317,12.18126 0,-3.53256 3.07615,-12.18126 3.07615,-12.18126 l -2.95924,2.02818 -3.19008,-2.02818"
       style="fill:#000000;fill-opacity:1;fill-rule:nonzero;stroke:none"
       id="path1002-4-6-5-3-3"
       inkscape:connector-curvature="0" /><path
       d="m 854.31789,407.27825 c 0,0 8.6487,-3.07317 12.18126,-3.07317 -3.53256,0 -12.18126,-3.07615 -12.18126,-3.07615 l 2.02818,2.95924 -2.02818,3.19008"
       style="fill:#000000;fill-opacity:1;fill-rule:nonzero;stroke:none"
       id="path1002-4-6-5-3-6-0"
       inkscape:connector-curvature="0" /><path
       sodipodi:nodetypes="cc"
       inkscape:connector-curvature="0"
       id="path972-3-62-2-8"
       style="fill:none;stroke:#000000;stroke-width:0.37200364;stroke-linecap:butt;stroke-linejoin:miter;stroke-miterlimit:4;stroke-dasharray:0.37200365, 1.11601095;stroke-dashoffset:0;stroke-opacity:1"
       d="M 754.95584,534.0738 H 744.47963" /><path
       sodipodi:nodetypes="cc"
       inkscape:connector-curvature="0"
       id="path972-3-62-2-8-1"
       style="fill:none;stroke:#000000;stroke-width:0.37200364;stroke-linecap:butt;stroke-linejoin:miter;stroke-miterlimit:4;stroke-dasharray:0.37200365, 1.11601095;stroke-dashoffset:0;stroke-opacity:1"
       d="M 837.78934,398.96549 V 409.4417" /><g
       id="g4060"
       transform="translate(527.9384,-153.30776)"
       style="fill:#000000;stroke:none"><path
         style="font-style:normal;font-variant:normal;font-weight:normal;font-stretch:normal;letter-spacing:normal;word-spacing:normal;text-anchor:start;fill:#000000;stroke:none;stroke-width:0;stroke-linecap:butt;stroke-linejoin:miter;stroke-miterlimit:10.43299961;stroke-dasharray:none;stroke-dashoffset:0;stroke-opacity:1"
         inkscape:connector-curvature="0"
         d="m 304.56346,547.96915 -0.0737,-0.002 -0.0763,-0.002 -0.0762,-0.002 -0.079,-0.008 -0.0789,-0.0131 -0.0421,-0.006 -0.0394,-0.008 -0.0394,-0.008 -0.0394,-0.0106 -0.0394,-0.0105 -0.0394,-0.0105 -0.0394,-0.0131 -0.0368,-0.0158 -0.0394,-0.0158 -0.0368,-0.0158 -0.0368,-0.0184 -0.0342,-0.0184 -0.0368,-0.021 -0.0342,-0.0237 -0.0342,-0.0237 -0.0316,-0.0237 -0.0316,-0.029 -0.0316,-0.029 -0.029,-0.029 -0.0263,-0.0342 -0.029,-0.0342 -0.0237,-0.0342 c -0.16835,-0.26043 -0.45771,-1.59936 -0.51032,-1.84664 l 0.28673,-0.0394 c 0.16835,0.44719 0.39458,1.04696 0.56294,1.23109 0.26305,0.26306 0.7497,0.28936 1.11534,0.28936 h 0.98119 l 0.0947,-0.0921 c -0.0947,-1.08904 -0.19729,-2.17808 -0.19729,-3.26186 0,-0.82599 0.13153,-1.9808 1.02065,-1.9808 0.56556,0 1.26002,0.49718 1.77035,0.9812 l -0.11838,0.18413 -0.11574,0.0263 c -0.21044,-0.12889 -0.54978,-0.32618 -0.80231,-0.32618 -0.81284,0 -0.79706,1.75457 -0.79706,2.19913 0,0.71287 0.11575,1.71773 0.14468,2.16756 l 0.11575,0.10259 h 0.89175 c 0.36565,0 0.73392,0.0526 1.08904,0.13153 l 0.56293,0.87859 -0.17361,0.11574 c -0.44193,-0.21044 -0.94173,-0.29988 -1.43891,-0.29988 z"
         id="path3499" /><path
         style="font-style:normal;font-variant:normal;font-weight:normal;font-stretch:normal;letter-spacing:normal;word-spacing:normal;text-anchor:start;fill:#000000;stroke:none;stroke-width:0;stroke-linecap:butt;stroke-linejoin:miter;stroke-miterlimit:10.43299961;stroke-dasharray:none;stroke-dashoffset:0;stroke-opacity:1"
         inkscape:connector-curvature="0"
         d="m 316.80334,544.03913 h -0.7234 l -1.07325,-2.00447 c -0.18414,-0.34197 -0.65764,-1.27581 -0.74444,-1.51255 l -0.008,0.008 v 0.14731 c 0,0.43929 -0.0447,0.84177 -0.0894,1.26265 l -0.23149,2.09917 h -0.70498 l -0.9049,-1.69406 c -0.31304,-0.57872 -0.7234,-1.35473 -0.86282,-1.80718 l -0.008,0.008 c 0.008,0.0578 0.008,0.0737 0.008,0.31303 0,0.43141 -0.0474,0.99698 -0.0921,1.42839 l -0.19203,1.75193 h -0.75233 l 0.47613,-4.06944 h 0.76811 c 0.0131,0.0158 0.70762,1.2916 0.94699,1.75984 0.25254,0.50506 0.7234,1.40207 0.83388,1.7414 h 0.008 v -0.27356 c 0,-0.413 0.0447,-0.97068 0.0947,-1.3863 l 0.20255,-1.84138 h 0.84177 z"
         id="path3501" /></g><path
       id="path3503"
       d="m 858.7708,394.83078 -0.0737,-0.002 -0.0763,-0.002 -0.0762,-0.002 -0.079,-0.008 -0.0789,-0.0131 -0.0394,-0.006 -0.0421,-0.008 -0.0394,-0.008 -0.0394,-0.0106 -0.0394,-0.0105 -0.0394,-0.0105 -0.0368,-0.0131 -0.0394,-0.0158 -0.0368,-0.0158 -0.0394,-0.0158 -0.0368,-0.0184 -0.0342,-0.0184 -0.0368,-0.021 -0.0342,-0.0237 -0.0342,-0.0237 -0.0316,-0.0237 -0.0316,-0.029 -0.0316,-0.029 -0.029,-0.029 -0.0263,-0.0342 -0.029,-0.0342 -0.0237,-0.0342 c -0.16836,-0.26043 -0.45772,-1.59936 -0.51032,-1.84664 l 0.28672,-0.0394 c 0.16836,0.44719 0.39458,1.04696 0.56294,1.23109 0.26305,0.26306 0.7497,0.28936 1.11534,0.28936 h 0.9812 l 0.0947,-0.0921 c -0.0947,-1.08904 -0.19729,-2.17808 -0.19729,-3.26186 0,-0.82599 0.13153,-1.9808 1.02065,-1.9808 0.56556,0 1.26003,0.49718 1.77035,0.9812 l -0.11837,0.18413 -0.11575,0.0263 c -0.21044,-0.12889 -0.54978,-0.32618 -0.80231,-0.32618 -0.81284,0 -0.79705,1.75456 -0.79705,2.19912 0,0.71287 0.11574,1.71773 0.14468,2.16756 l 0.11574,0.10259 h 0.89175 c 0.36564,0 0.73655,0.0526 1.08904,0.13153 l 0.56294,0.87859 -0.17362,0.11574 c -0.44193,-0.21044 -0.9391,-0.29988 -1.4389,-0.29988 z"
       inkscape:connector-curvature="0"
       style="font-style:normal;font-variant:normal;font-weight:normal;font-stretch:normal;letter-spacing:normal;word-spacing:normal;text-anchor:start;fill:#000000;stroke:none;stroke-width:0;stroke-linecap:butt;stroke-linejoin:miter;stroke-miterlimit:10.43299961;stroke-dasharray:none;stroke-dashoffset:0;stroke-opacity:1" /><path
       id="path3489-6"
       d="m 741.15536,557.90803 h -0.98383 l -1.78349,-2.94883 c -0.40774,-0.72077 -0.91543,-1.64934 -1.03643,-2.10969 h -0.0106 c 0.0106,0.0894 0.0106,0.18414 0.0106,0.32882 0,0.67868 -0.23412,1.98869 -0.3788,2.67262 l -0.4472,2.05708 h -1.03643 l 1.27582,-5.6346 c 0,-0.029 0.0368,-0.14205 0.0368,-0.16047 0,-0.0763 -0.59976,-1.00749 -0.70762,-1.16269 -0.37879,-0.57872 -0.58661,-0.80232 -0.91542,-0.80232 -0.22359,0 -0.64185,0.0553 -0.98382,0.21045 l -0.10522,-0.84966 c 0.35249,-0.079 0.70498,-0.10786 0.91542,-0.10786 0.38143,0 0.92069,0.0526 1.83611,1.5336 z"
       inkscape:connector-curvature="0"
       style="font-style:normal;font-variant:normal;font-weight:normal;font-stretch:normal;letter-spacing:normal;word-spacing:normal;text-anchor:start;fill:#000000;stroke:none;stroke-width:0;stroke-linecap:butt;stroke-linejoin:miter;stroke-miterlimit:10.43299961;stroke-dasharray:none;stroke-dashoffset:0;stroke-opacity:1" /><path
       id="path3491-5"
       d="m 739.41533,537.91094 -0.071,0.0105 -0.0684,0.008 -0.0684,0.0105 -0.0658,0.008 -0.0658,0.008 -0.0658,0.006 -0.12891,0.0158 -0.12626,0.0106 -0.0658,0.006 -0.0631,0.002 -0.0631,0.002 -0.0658,0.002 -0.0631,0.002 h -0.0684 c -0.95225,0 -1.77824,-0.2762 -2.23859,-1.20478 -0.0789,-0.16046 -0.14468,-0.31567 -0.14468,-0.48402 0,-0.50243 0.70762,-1.15743 1.20479,-1.61778 l 0.31566,-0.25779 c 0.78654,-0.78916 1.78351,-1.84926 1.78351,-2.79363 0,-1.08641 -0.59188,-2.1623 -1.57306,-2.1623 -1.11272,0 -1.58622,1.2574 -1.58622,2.20176 0,0.99434 0.46035,1.8098 1.37577,2.75417 v 0 l -0.31566,0.25779 c -1.00749,-1.00486 -2.0676,-2.34117 -2.0676,-3.69327 0,-1.07325 0.57609,-2.21491 1.93608,-2.21491 1.71773,0 3.06983,1.71774 3.06983,3.40654 0,0.7234 -0.39458,1.37577 -0.89175,1.8861 l -1.24424,1.19689 c -1.04959,0.99434 -1.3784,1.20478 -1.3784,1.55728 0,0.41825 0.42088,0.53925 0.85229,0.53925 0.86544,0 1.36261,-0.0947 1.82296,-0.121 l 0.19466,0.55241 z"
       inkscape:connector-curvature="0"
       style="font-style:normal;font-variant:normal;font-weight:normal;font-stretch:normal;letter-spacing:normal;word-spacing:normal;text-anchor:start;fill:#000000;stroke:none;stroke-width:0;stroke-linecap:butt;stroke-linejoin:miter;stroke-miterlimit:10.43299961;stroke-dasharray:none;stroke-dashoffset:0;stroke-opacity:1" /></g></svg>