<?xml version="1.0" encoding="UTF-8" standalone="no"?>
<!-- Created with Inkscape (http://www.inkscape.org/) -->

<svg
   xmlns:dc="http://purl.org/dc/elements/1.1/"
   xmlns:cc="http://creativecommons.org/ns#"
   xmlns:rdf="http://www.w3.org/1999/02/22-rdf-syntax-ns#"
   xmlns:svg="http://www.w3.org/2000/svg"
   xmlns="http://www.w3.org/2000/svg"
   xmlns:sodipodi="http://sodipodi.sourceforge.net/DTD/sodipodi-0.dtd"
   xmlns:inkscape="http://www.inkscape.org/namespaces/inkscape"
   id="svg2"
   version="1.1"
   inkscape:version="0.92.2 (5c3e80d, 2017-08-06)"
   width="173.52493"
   height="224.33963"
   xml:space="preserve"
   sodipodi:docname="grad_p_caso_4.svg"><sodipodi:namedview
     pagecolor="#ffffff"
     bordercolor="#666666"
     borderopacity="1"
     objecttolerance="10"
     gridtolerance="10"
     guidetolerance="10"
     inkscape:pageopacity="0"
     inkscape:pageshadow="2"
     inkscape:window-width="3840"
     inkscape:window-height="1973"
     id="namedview4"
     showgrid="false"
     inkscape:zoom="0.72453696"
     inkscape:cx="-1039.6363"
     inkscape:cy="73.973241"
     inkscape:window-x="-18"
     inkscape:window-y="-18"
     inkscape:window-maximized="1"
     inkscape:current-layer="g10"
     showguides="true"
     inkscape:guide-bbox="true"
     fit-margin-top="4"
     fit-margin-left="4"
     fit-margin-right="4"
     fit-margin-bottom="4" /><metadata
     id="metadata8"><rdf:RDF><cc:Work
         rdf:about=""><dc:format>image/svg+xml</dc:format><dc:type
           rdf:resource="http://purl.org/dc/dcmitype/StillImage" /><dc:title></dc:title></cc:Work></rdf:RDF></metadata><defs
     id="defs6" /><g
     id="g10"
     inkscape:groupmode="layer"
     inkscape:label="enotes_af3_On_ Boundary_Layer_Theory"
     transform="matrix(1.25,0,0,-1.25,-913.599,703.68136)"><path
       sodipodi:nodetypes="csssc"
       d="m 749.75153,404.33594 c 25.38296,10.37481 39.4473,38.33099 39.68287,46.21706 0.37656,12.60595 -15.55638,23.95188 -21.92095,32.12494 -6.02655,7.739 -16.94302,20.0049 -17.87495,49.58966 -0.96628,30.67508 0,1.86227 0,1.86227"
       style="fill:none;stroke:#ff0000;stroke-width:1.86001825;stroke-linecap:butt;stroke-linejoin:miter;stroke-miterlimit:4;stroke-dasharray:none;stroke-opacity:1"
       id="path948-7"
       inkscape:connector-curvature="0" /><path
       sodipodi:nodetypes="ccc"
       inkscape:connector-curvature="0"
       id="path4683-0"
       d="M 749.78037,553.47057 V 404.20083 h 109.39302"
       style="fill:none;stroke:#000000;stroke-width:0.80000001px;stroke-linecap:butt;stroke-linejoin:miter;stroke-opacity:1" /><path
       inkscape:connector-curvature="0"
       id="path1002-4-6-5-3-3"
       style="fill:#000000;fill-opacity:1;fill-rule:nonzero;stroke:none"
       d="m 746.64308,547.56383 c 0,0 3.07317,8.6487 3.07317,12.18126 0,-3.53256 3.07615,-12.18126 3.07615,-12.18126 l -2.95924,2.02818 -3.19008,-2.02818" /><path
       inkscape:connector-curvature="0"
       id="path1002-4-6-5-3-6-0"
       style="fill:#000000;fill-opacity:1;fill-rule:nonzero;stroke:none"
       d="m 854.31789,407.27825 c 0,0 8.6487,-3.07317 12.18126,-3.07317 -3.53256,0 -12.18126,-3.07615 -12.18126,-3.07615 l 2.02818,2.95924 -2.02818,3.19008" /><path
       d="M 754.95584,534.0738 H 744.47963"
       style="fill:none;stroke:#000000;stroke-width:0.37200364;stroke-linecap:butt;stroke-linejoin:miter;stroke-miterlimit:4;stroke-dasharray:0.37200365, 1.11601095;stroke-dashoffset:0;stroke-opacity:1"
       id="path972-3-62-2-8"
       inkscape:connector-curvature="0"
       sodipodi:nodetypes="cc" /><path
       inkscape:connector-curvature="0"
       style="fill:#000000;fill-opacity:1;fill-rule:nonzero;stroke:none;stroke-width:0.02834645px;stroke-linecap:butt;stroke-linejoin:miter;stroke-miterlimit:4;stroke-dasharray:none;stroke-opacity:1"
       d="m 741.16587,557.9064 h -0.99213 l -1.78583,-2.94803 c -0.39684,-0.73701 -0.90708,-1.67244 -1.04881,-2.12598 v 0 0.34016 c 0,0.68031 -0.22678,1.98425 -0.36851,2.66456 l -0.45354,2.06929 h -1.02047 l 1.27558,-5.64094 c 0,-0.0284 0.0283,-0.14173 0.0283,-0.17008 0,-0.0567 -0.59528,-0.99213 -0.70866,-1.1622 -0.36851,-0.56693 -0.59527,-0.79371 -0.90709,-0.79371 -0.22677,0 -0.65197,0.0567 -0.99213,0.19843 l -0.11338,-0.85039 c 0.3685,-0.0567 0.70866,-0.085 0.93543,-0.085 0.3685,0 0.90709,0.0283 1.81418,1.53071 z"
       id="path3439" /><path
       inkscape:connector-curvature="0"
       style="fill:#000000;fill-opacity:1;fill-rule:nonzero;stroke:none;stroke-width:0.02834645px;stroke-linecap:butt;stroke-linejoin:miter;stroke-miterlimit:4;stroke-dasharray:none;stroke-opacity:1"
       d="m 739.42243,537.91616 -0.085,0.0283 h -0.0567 -0.0567 l -0.085,0.0284 h -0.0567 -0.0567 l -0.14173,0.0284 h -0.11339 -0.085 -0.0567 -0.0567 -0.0567 -0.085 -0.0567 c -0.96378,0 -1.78583,-0.25512 -2.23937,-1.19055 -0.085,-0.17008 -0.14173,-0.31181 -0.14173,-0.48189 0,-0.51024 0.70866,-1.16221 1.19055,-1.61575 l 0.31181,-0.25512 c 0.7937,-0.7937 1.78582,-1.87087 1.78582,-2.8063 0,-1.07716 -0.59527,-2.15433 -1.55905,-2.15433 -1.10551,0 -1.5874,1.24724 -1.5874,2.21102 0,0.99213 0.45354,1.78583 1.36063,2.74961 v 0 l -0.31181,0.25512 c -0.99213,-1.02047 -2.06929,-2.35276 -2.06929,-3.71339 0,-1.04882 0.59527,-2.21102 1.9559,-2.21102 1.70079,0 3.06142,1.72913 3.06142,3.42992 0,0.70866 -0.39685,1.36063 -0.90709,1.87087 l -1.21887,1.19055 c -1.04882,0.99212 -1.38898,1.21889 -1.38898,1.55905 0,0.4252 0.4252,0.53859 0.8504,0.53859 0.87874,0 1.36063,-0.085 1.81417,-0.11339 l 0.19842,0.53858 z"
       id="path3441" /><g
       id="g5375"
       transform="translate(397.0068,-154.20717)"
       style="stroke:none"><path
         id="path3449"
         d="m 347.55857,548.87425 h -0.085 -0.0567 -0.085 l -0.085,-0.0283 h -0.085 -0.0283 l -0.0567,-0.0284 h -0.0283 -0.0283 l -0.0567,-0.0283 h -0.0283 -0.0567 l -0.0283,-0.0283 -0.0283,-0.0283 h -0.0567 l -0.0283,-0.0283 h -0.0283 l -0.0283,-0.0283 -0.0567,-0.0284 -0.0283,-0.0283 -0.0283,-0.0284 -0.0283,-0.0283 -0.0283,-0.0283 -0.0283,-0.0283 -0.0283,-0.0284 -0.0283,-0.0283 -0.0283,-0.0284 c -0.17008,-0.28346 -0.45354,-1.61575 -0.51024,-1.87086 l 0.28347,-0.0284 c 0.17007,0.45354 0.39685,1.04882 0.56693,1.24724 0.25511,0.25512 0.76535,0.28347 1.10551,0.28347 h 0.99212 l 0.085,-0.11339 c -0.085,-1.07716 -0.19842,-2.15433 -0.19842,-3.25984 0,-0.82205 0.14173,-1.95591 1.02047,-1.95591 0.56693,0 1.27559,0.48189 1.78583,0.96378 l -0.11339,0.19843 -0.11338,0.0283 c -0.22677,-0.14173 -0.56693,-0.34015 -0.82205,-0.34015 -0.7937,0 -0.7937,1.75748 -0.7937,2.21102 0,0.70866 0.11339,1.70079 0.14173,2.15433 l 0.11338,0.11339 h 0.90709 c 0.36851,0 0.73701,0.0567 1.07717,0.11338 l 0.56693,0.87874 -0.17008,0.11339 c -0.45355,-0.19843 -0.93543,-0.28347 -1.44567,-0.28347 z"
         style="fill:#000000;fill-opacity:1;fill-rule:nonzero;stroke:none;stroke-width:0.02834645px;stroke-linecap:butt;stroke-linejoin:miter;stroke-miterlimit:4;stroke-dasharray:none;stroke-opacity:1"
         inkscape:connector-curvature="0" /><path
         id="path3451"
         d="m 359.80423,544.9341 h -0.737 l -1.07716,-2.0126 c -0.17008,-0.34016 -0.65197,-1.27559 -0.73701,-1.50236 v 0 0.17007 c 0,0.4252 -0.0567,0.82205 -0.085,1.24725 l -0.25512,2.09764 h -0.70867 l -0.87873,-1.70079 c -0.31182,-0.56693 -0.73701,-1.33228 -0.87875,-1.78583 v 0 0.31181 c 0,0.4252 -0.0567,0.99213 -0.085,1.41733 l -0.19842,1.75748 h -0.73701 l 0.45355,-4.05355 h 0.76535 c 0.0283,0 0.70866,1.27559 0.96378,1.75748 0.25512,0.51024 0.70867,1.38898 0.82205,1.72914 h 0.0283 v -0.25512 c 0,-0.4252 0.0283,-0.99213 0.085,-1.38898 l 0.19842,-1.84252 h 0.8504 z"
         style="fill:#000000;fill-opacity:1;fill-rule:nonzero;stroke:none;stroke-width:0.02834645px;stroke-linecap:butt;stroke-linejoin:miter;stroke-miterlimit:4;stroke-dasharray:none;stroke-opacity:1"
         inkscape:connector-curvature="0" /></g><path
       inkscape:connector-curvature="0"
       style="fill:#000000;fill-opacity:1;fill-rule:nonzero;stroke:none;stroke-width:0.02834645px;stroke-linecap:butt;stroke-linejoin:miter;stroke-miterlimit:4;stroke-dasharray:none;stroke-opacity:1"
       d="m 858.77771,394.84898 h -0.085 -0.085 -0.0567 l -0.085,-0.0283 h -0.085 -0.0283 l -0.0567,-0.0283 h -0.0283 -0.0567 l -0.0283,-0.0284 h -0.0283 l -0.0567,-0.0283 h -0.0283 l -0.0283,-0.0284 h -0.0567 l -0.0283,-0.0284 h -0.0283 l -0.0567,-0.0283 -0.0283,-0.0284 -0.0283,-0.0283 -0.0283,-0.0284 -0.0283,-0.0283 -0.0283,-0.0283 -0.0283,-0.0283 -0.0283,-0.0284 -0.0283,-0.0283 -0.0283,-0.0284 c -0.17008,-0.28346 -0.45355,-1.61575 -0.51024,-1.87087 l 0.28346,-0.0283 c 0.17008,0.45354 0.39686,1.04882 0.56694,1.21889 0.25511,0.28346 0.737,0.31182 1.1055,0.31182 h 0.99213 l 0.085,-0.11339 c -0.085,-1.07717 -0.19842,-2.15433 -0.19842,-3.25985 0,-0.82205 0.14173,-1.98424 1.02047,-1.98424 0.56693,0 1.27559,0.51022 1.78582,0.99212 l -0.14173,0.19843 -0.11338,0.0283 c -0.19842,-0.14173 -0.53858,-0.34015 -0.7937,-0.34015 -0.82205,0 -0.79371,1.75748 -0.79371,2.21103 0,0.70866 0.11339,1.70078 0.14174,2.15433 l 0.11338,0.11338 h 0.90709 c 0.34016,0 0.73701,0.0567 1.07717,0.11339 l 0.56693,0.87874 -0.17008,0.11338 c -0.45355,-0.19843 -0.93544,-0.28346 -1.44568,-0.28346 z"
       id="path3453" /><path
       d="M 749.85243,398.96549 V 409.4417"
       style="fill:#ff00ff;stroke:#000000;stroke-width:0.37200364;stroke-linecap:butt;stroke-linejoin:miter;stroke-miterlimit:4;stroke-dasharray:0.37200365, 1.11601095;stroke-dashoffset:0;stroke-opacity:1"
       id="path972-3-62-2-8-1"
       inkscape:connector-curvature="0"
       sodipodi:nodetypes="cc" /></g></svg>