<?xml version="1.0" encoding="UTF-8" standalone="no"?>
<!-- Created with Inkscape (http://www.inkscape.org/) -->

<svg
   xmlns:dc="http://purl.org/dc/elements/1.1/"
   xmlns:cc="http://creativecommons.org/ns#"
   xmlns:rdf="http://www.w3.org/1999/02/22-rdf-syntax-ns#"
   xmlns:svg="http://www.w3.org/2000/svg"
   xmlns="http://www.w3.org/2000/svg"
   xmlns:sodipodi="http://sodipodi.sourceforge.net/DTD/sodipodi-0.dtd"
   xmlns:inkscape="http://www.inkscape.org/namespaces/inkscape"
   id="svg2"
   version="1.1"
   inkscape:version="0.92.2 (5c3e80d, 2017-08-06)"
   width="197.90871"
   height="224.33963"
   xml:space="preserve"
   sodipodi:docname="grad_p_caso_5.svg"><sodipodi:namedview
     pagecolor="#ffffff"
     bordercolor="#666666"
     borderopacity="1"
     objecttolerance="10"
     gridtolerance="10"
     guidetolerance="10"
     inkscape:pageopacity="0"
     inkscape:pageshadow="2"
     inkscape:window-width="3840"
     inkscape:window-height="1973"
     id="namedview4"
     showgrid="false"
     inkscape:zoom="1.7737026"
     inkscape:cx="-94.776964"
     inkscape:cy="295.33931"
     inkscape:window-x="-18"
     inkscape:window-y="-18"
     inkscape:window-maximized="1"
     inkscape:current-layer="g10"
     showguides="true"
     inkscape:guide-bbox="true"
     fit-margin-top="4"
     fit-margin-left="4"
     fit-margin-right="4"
     fit-margin-bottom="4" /><metadata
     id="metadata8"><rdf:RDF><cc:Work
         rdf:about=""><dc:format>image/svg+xml</dc:format><dc:type
           rdf:resource="http://purl.org/dc/dcmitype/StillImage" /><dc:title></dc:title></cc:Work></rdf:RDF></metadata><defs
     id="defs6" /><g
     id="g10"
     inkscape:groupmode="layer"
     inkscape:label="enotes_af3_On_ Boundary_Layer_Theory"
     transform="matrix(1.25,0,0,-1.25,-889.21524,703.68136)"><path
       sodipodi:nodetypes="cccc"
       d="m 727.72289,404.33594 c 27.64231,5.103 55.21588,40.47087 55.21588,59.49073 0,26.70142 -32.27361,45.71869 -33.30027,68.44093 -0.96628,30.67508 0,1.86227 0,1.86227"
       style="fill:none;stroke:#ff0000;stroke-width:1.86001825;stroke-linecap:butt;stroke-linejoin:miter;stroke-miterlimit:4;stroke-dasharray:none;stroke-opacity:1"
       id="path948-7"
       inkscape:connector-curvature="0" /><path
       sodipodi:nodetypes="cccc"
       inkscape:connector-curvature="0"
       id="path4683-0"
       d="M 749.78037,553.47057 V 404.20083 m -35.20818,0 h 144.6012"
       style="fill:none;stroke:#000000;stroke-width:0.80000001px;stroke-linecap:butt;stroke-linejoin:miter;stroke-opacity:1" /><path
       inkscape:connector-curvature="0"
       id="path1002-4-6-5-3-3"
       style="fill:#000000;fill-opacity:1;fill-rule:nonzero;stroke:none"
       d="m 746.64308,547.56383 c 0,0 3.07317,8.6487 3.07317,12.18126 0,-3.53256 3.07615,-12.18126 3.07615,-12.18126 l -2.95924,2.02818 -3.19008,-2.02818" /><path
       inkscape:connector-curvature="0"
       id="path1002-4-6-5-3-6-0"
       style="fill:#000000;fill-opacity:1;fill-rule:nonzero;stroke:none"
       d="m 854.31789,407.27825 c 0,0 8.6487,-3.07317 12.18126,-3.07317 -3.53256,0 -12.18126,-3.07615 -12.18126,-3.07615 l 2.02818,2.95924 -2.02818,3.19008" /><path
       d="M 754.95584,534.0738 H 744.47963"
       style="fill:none;stroke:#000000;stroke-width:0.37200364;stroke-linecap:butt;stroke-linejoin:miter;stroke-miterlimit:4;stroke-dasharray:0.37200365, 1.11601095;stroke-dashoffset:0;stroke-opacity:1"
       id="path972-3-62-2-8"
       inkscape:connector-curvature="0"
       sodipodi:nodetypes="cc" /><path
       d="M 749.85243,398.96549 V 409.4417"
       style="fill:none;stroke:#000000;stroke-width:0.37200364;stroke-linecap:butt;stroke-linejoin:miter;stroke-miterlimit:4;stroke-dasharray:0.37200365, 1.11601095;stroke-dashoffset:0;stroke-opacity:1"
       id="path972-3-62-2-8-1"
       inkscape:connector-curvature="0"
       sodipodi:nodetypes="cc" /><path
       id="path3415"
       d="m 739.4224,537.91626 -0.085,0.0284 h -0.0567 -0.0567 l -0.085,0.0283 h -0.0567 -0.0567 l -0.14173,0.0283 h -0.11339 -0.085 -0.0567 -0.0567 -0.0567 -0.085 -0.0567 c -0.96378,0 -1.78583,-0.2551 -2.23937,-1.19055 -0.085,-0.17008 -0.14173,-0.31181 -0.14173,-0.48189 0,-0.51023 0.70866,-1.1622 1.19055,-1.61575 l 0.31184,-0.25511 c 0.7937,-0.7937 1.78583,-1.87087 1.78583,-2.8063 0,-1.07717 -0.59528,-2.15432 -1.55906,-2.15432 -1.10551,0 -1.5874,1.24723 -1.5874,2.21101 0,0.99213 0.45354,1.78584 1.36063,2.74961 v 0 l -0.31181,0.25511 c -0.99213,-1.02047 -2.06929,-2.35275 -2.06929,-3.71338 0,-1.04882 0.59527,-2.21102 1.9559,-2.21102 1.70079,0 3.06142,1.72913 3.06142,3.42992 0,0.70866 -0.39685,1.36063 -0.90708,1.87086 l -1.21888,1.19055 c -1.04882,0.99213 -1.38897,1.2189 -1.38897,1.55906 0,0.42521 0.42519,0.53859 0.85039,0.53859 0.87874,0 1.36063,-0.085 1.81417,-0.11338 l 0.19843,0.53857 z"
       style="fill:#000000;fill-opacity:1;fill-rule:nonzero;stroke:none;stroke-width:0.02834645px;stroke-linecap:butt;stroke-linejoin:miter;stroke-miterlimit:4;stroke-dasharray:none;stroke-opacity:1"
       inkscape:connector-curvature="0" /><g
       id="g3906"
       transform="translate(381.8894,-154.58456)"
       style="stroke:none"><path
         inkscape:connector-curvature="0"
         style="fill:#000000;fill-opacity:1;fill-rule:nonzero;stroke:none;stroke-width:0.02834645px;stroke-linecap:butt;stroke-linejoin:miter;stroke-miterlimit:4;stroke-dasharray:none;stroke-opacity:1"
         d="m 362.67597,549.25165 h -0.085 -0.0567 -0.085 l -0.085,-0.0284 h -0.085 -0.0283 l -0.0567,-0.0283 h -0.0283 -0.0283 l -0.0567,-0.0284 h -0.0283 -0.0567 l -0.0283,-0.0284 -0.0283,-0.0283 h -0.0567 l -0.0283,-0.0283 h -0.0283 l -0.0283,-0.0283 -0.0567,-0.0283 -0.0283,-0.0284 -0.0283,-0.0283 -0.0283,-0.0284 -0.0283,-0.0284 -0.0283,-0.0283 -0.0283,-0.0284 -0.0283,-0.0283 -0.0283,-0.0283 c -0.17008,-0.28347 -0.45355,-1.61575 -0.51024,-1.87087 l 0.28347,-0.0283 c 0.17007,0.45354 0.39685,1.04881 0.56693,1.24724 0.25512,0.25512 0.76535,0.28346 1.10551,0.28346 h 0.99213 l 0.085,-0.11338 c -0.085,-1.07717 -0.19843,-2.15433 -0.19843,-3.25984 0,-0.82205 0.14174,-1.95591 1.02048,-1.95591 0.56692,0 1.27559,0.48189 1.78583,0.96378 l -0.11339,0.19842 -0.11339,0.0284 c -0.22677,-0.14173 -0.56693,-0.34016 -0.82205,-0.34016 -0.79369,0 -0.79369,1.75748 -0.79369,2.21102 0,0.70867 0.11338,1.70079 0.14173,2.15434 l 0.11338,0.11338 h 0.90709 c 0.3685,0 0.73701,0.0567 1.07717,0.11339 l 0.56692,0.87874 -0.17008,0.11338 c -0.45354,-0.19842 -0.93543,-0.28346 -1.44566,-0.28346 z"
         id="path3423" /><path
         inkscape:connector-curvature="0"
         style="fill:#000000;fill-opacity:1;fill-rule:nonzero;stroke:none;stroke-width:0.02834645px;stroke-linecap:butt;stroke-linejoin:miter;stroke-miterlimit:4;stroke-dasharray:none;stroke-opacity:1"
         d="m 374.92163,545.31149 h -0.73701 l -1.07716,-2.0126 c -0.17008,-0.34015 -0.65197,-1.27559 -0.73701,-1.50236 v 0 0.17008 c 0,0.4252 -0.0567,0.82205 -0.085,1.24725 l -0.25512,2.09763 h -0.70866 l -0.87874,-1.70078 c -0.31181,-0.56693 -0.737,-1.33229 -0.87874,-1.78583 v 0 c 0,0.0567 0,0.085 0,0.31181 0,0.4252 -0.0567,0.99213 -0.085,1.41732 l -0.19842,1.75748 h -0.73701 l 0.45354,-4.05354 h 0.76535 c 0.0283,0 0.70867,1.27559 0.96379,1.75748 0.25512,0.51024 0.70866,1.38898 0.82205,1.72913 h 0.0283 v -0.25511 c 0,-0.4252 0.0283,-0.99213 0.085,-1.38898 l 0.19842,-1.84252 h 0.85039 z"
         id="path3425" /></g><path
       id="path3427"
       d="m 858.77749,394.84888 h -0.085 -0.085 -0.0567 l -0.085,-0.0284 h -0.085 -0.0283 l -0.0567,-0.0283 h -0.0283 -0.0567 l -0.0283,-0.0284 h -0.0283 l -0.0567,-0.0283 h -0.0283 l -0.0283,-0.0283 h -0.0567 l -0.0283,-0.0283 h -0.0283 l -0.0567,-0.0284 -0.0283,-0.0283 -0.0283,-0.0284 -0.0283,-0.0284 -0.0283,-0.0283 -0.0283,-0.0283 -0.0283,-0.0283 -0.0283,-0.0283 -0.0283,-0.0284 -0.0283,-0.0283 c -0.17008,-0.28347 -0.45355,-1.61574 -0.51024,-1.87087 l 0.28347,-0.0283 c 0.17008,0.45355 0.39685,1.04882 0.56692,1.2189 0.25558,0.28348 0.73747,0.31181 1.10597,0.31181 h 0.99213 l 0.085,-0.11338 c -0.085,-1.07717 -0.19843,-2.15433 -0.19843,-3.25985 0,-0.82204 0.14173,-1.98424 1.02048,-1.98424 0.56692,0 1.27559,0.51024 1.78582,0.99212 l -0.14173,0.19842 -0.11339,0.0283 c -0.19842,-0.14174 -0.53858,-0.34016 -0.7937,-0.34016 -0.82204,0 -0.7937,1.75748 -0.7937,2.21102 0,0.70867 0.11338,1.70079 0.14174,2.15433 l 0.11338,0.11339 h 0.90709 c 0.34016,0 0.73701,0.0567 1.07717,0.11339 l 0.56692,0.87875 -0.17008,0.11338 c -0.45354,-0.19842 -0.93543,-0.28345 -1.44567,-0.28345 z"
       style="fill:#000000;fill-opacity:1;fill-rule:nonzero;stroke:none;stroke-width:0.02834645px;stroke-linecap:butt;stroke-linejoin:miter;stroke-miterlimit:4;stroke-dasharray:none;stroke-opacity:1"
       inkscape:connector-curvature="0" /><path
       id="path3413-7"
       d="m 741.16586,557.90641 h -0.99213 l -1.78582,-2.94803 c -0.39685,-0.73701 -0.90709,-1.67244 -1.04882,-2.12598 v 0 c 0,0.085 0,0.19842 0,0.34015 0,0.68032 -0.22677,1.98425 -0.36851,2.66457 l -0.45354,2.06929 h -1.02047 l 1.27559,-5.64094 c 0,-0.0284 0.0283,-0.14174 0.0283,-0.17008 0,-0.0567 -0.59527,-0.99213 -0.70865,-1.16221 -0.36851,-0.56693 -0.59528,-0.7937 -0.9071,-0.7937 -0.22677,0 -0.65196,0.0567 -0.99212,0.19843 l -0.11338,-0.8504 c 0.3685,-0.0567 0.70865,-0.085 0.93544,-0.085 0.36849,0 0.90708,0.0284 1.81416,1.53071 z"
       style="fill:#000000;fill-opacity:1;fill-rule:nonzero;stroke:none;stroke-width:0.02834645px;stroke-linecap:butt;stroke-linejoin:miter;stroke-miterlimit:4;stroke-dasharray:none;stroke-opacity:1"
       inkscape:connector-curvature="0" /></g></svg>